#!OML:ASF F:\VICON\USERDATA\INSTALL\rory3\rory3.ASF
:FULLY-SPECIFIED
:DEGREES
2182
root -1.83273 17.8577 0.659553 -3.00087 9.13222 1.66341
lowerback 13.3105 -8.65797 -8.56404
upperback 0.426657 -12.5497 4.34209
thorax -4.06104 -6.07451 11.2217
lowerneck -17.045 -4.06605 -12.4647
upperneck 29.845 -5.25299 9.6043
head 13.5173 -2.51573 5.09412
rclavicle 6.90777e-014 -1.74931e-014
rhumerus -43.9873 -1.94208 -47.2375
rradius 88.706
rwrist 13.2916
rhand -24.6283 16.5441
rfingers 7.12502
rthumb 1.87059 -13.4275
lclavicle 6.90777e-014 -1.74931e-014
lhumerus -7.02556 4.37094 67.2288
lradius 72.2456
lwrist 14.2839
lhand -15.6128 10.8972
lfingers 7.12502
lthumb 10.5737 40.6112
rfemur -71.0951 11.2002 13.4887
rtibia 102.464
rfoot -8.95007 -0.72218
rtoes 2.69128
lfemur -2.33891 -2.56345 -24.4554
ltibia 21.0771
lfoot -10.982 1.33322
ltoes -12.8563
2183
root -1.83127 17.8711 0.636143 -3.21011 8.81728 1.38733
lowerback 13.9255 -8.85308 -8.58507
upperback 0.544485 -12.8428 4.53128
thorax -4.14678 -6.21994 11.5691
lowerneck -17.1384 -3.97833 -12.1537
upperneck 29.9546 -5.10223 9.23049
head 13.5402 -2.46376 4.91462
rclavicle -3.20043e-014 6.36111e-015
rhumerus -44.5182 -1.74237 -47.2343
rradius 88.5661
rwrist 13.1308
rhand -24.6558 16.4337
rfingers 7.12502
rthumb 1.844 -13.5381
lclavicle -3.20043e-014 6.36111e-015
lhumerus -5.70264 3.69872 67.012
lradius 72.4053
lwrist 14.7248
lhand -16.011 10.1954
lfingers 7.12502
lthumb 10.1895 39.9287
rfemur -72.8909 11.979 13.6606
rtibia 103.199
rfoot -8.93011 -0.557509
rtoes 2.06831
lfemur -2.01124 -2.44724 -24.1791
ltibia 20.6125
lfoot -10.6227 1.48925
ltoes -12.958
2184
root -1.82817 17.8832 0.609944 -3.3844 8.67873 1.22328
lowerback 14.5952 -9.08036 -8.65845
upperback 0.63707 -13.1929 4.67487
thorax -4.27039 -6.38808 11.9188
lowerneck -17.2608 -3.90629 -11.9329
upperneck 30.1715 -4.9842 8.95993
head 13.6273 -2.42526 4.79325
rclavicle 2.14687e-014 -2.3059e-014
rhumerus -44.8814 -2.10549 -47.1983
rradius 88.0495
rwrist 13.31
rhand -24.4866 16.6013
rfingers 7.12502
rthumb 2.00743 -13.369
lclavicle 2.14687e-014 -2.3059e-014
lhumerus -4.28177 3.0517 66.7577
lradius 72.6523
lwrist 14.7929
lhand -15.9624 10.4592
lfingers 7.12502
lthumb 10.2364 40.1901
rfemur -74.6722 12.5616 13.6803
rtibia 103.892
rfoot -8.46648 -0.462924
rtoes 1.9556
lfemur -1.7584 -2.36676 -24.0242
ltibia 20.2546
lfoot -10.3491 1.51873
ltoes -12.8132
2185
root -1.82506 17.8964 0.584622 -3.64041 8.64517 1.00109
lowerback 15.3638 -9.36195 -8.69029
upperback 0.734167 -13.6132 4.836
thorax -4.4242 -6.58935 12.2977
lowerneck -17.148 -3.87239 -12.0243
upperneck 30.1859 -4.93879 8.9927
head 13.6064 -2.41732 4.83068
rclavicle -7.48424e-014 -2.46493e-014
rhumerus -45.2591 -2.21514 -47.1084
rradius 87.6963
rwrist 13.5509
rhand -24.2616 16.9642
rfingers 7.12502
rthumb 2.22472 -13.004
lclavicle -7.48424e-014 -2.46493e-014
lhumerus -2.90725 2.57497 66.4772
lradius 72.8747
lwrist 14.6136
lhand -15.6281 10.8543
lfingers 7.12502
lthumb 10.559 40.5691
rfemur -76.2536 13.111 13.7475
rtibia 104.511
rfoot -8.09862 -0.368953
rtoes 2.08596
lfemur -1.48332 -2.32489 -23.801
ltibia 20.0032
lfoot -10.1856 1.46949
ltoes -12.3509
2186
root -1.82036 17.905 0.556655 -3.84824 8.62809 0.941307
lowerback 16.0481 -9.67258 -8.78414
upperback 0.908222 -14.0797 4.88893
thorax -4.44445 -6.8264 12.5699
lowerneck -17.3198 -3.83655 -11.8999
upperneck 30.2956 -4.85848 8.81281
head 13.6706 -2.39194 4.7524
rclavicle -9.8299e-014 -7.95139e-015
rhumerus -45.5586 -2.28679 -47.1303
rradius 87.5178
rwrist 13.8462
rhand -23.9416 17.3269
rfingers 7.12502
rthumb 2.53375 -12.6378
lclavicle -9.8299e-014 -7.95139e-015
lhumerus -1.44922 2.1888 66.0593
lradius 73.0125
lwrist 14.4174
lhand -15.4959 10.6365
lfingers 7.12502
lthumb 10.6864 40.3447
rfemur -77.887 13.5632 13.5889
rtibia 105.096
rfoot -7.78158 -0.265554
rtoes 2.34815
lfemur -1.24782 -2.27525 -23.7784
ltibia 19.779
lfoot -10.0578 1.44888
ltoes -12.2667
2187
root -1.81481 17.9089 0.525754 -3.97495 8.4669 0.928429
lowerback 16.5223 -9.97022 -8.77608
upperback 1.1515 -14.5019 4.77284
thorax -4.35499 -7.05347 12.5455
lowerneck -17.4213 -3.74289 -11.5323
upperneck 30.2962 -4.79404 8.68961
head 13.6673 -2.33733 4.6472
rclavicle 3.6477e-014 -1.03368e-014
rhumerus -45.9262 -2.49759 -47.4868
rradius 87.3362
rwrist 14.1625
rhand -23.8016 17.5264
rfingers 7.12502
rthumb 2.66894 -12.4367
lclavicle 3.6477e-014 -1.03368e-014
lhumerus 0.0746744 1.62608 65.26
lradius 73.1921
lwrist 14.36
lhand -15.3312 10.5231
lfingers 7.12502
lthumb 10.8453 40.2231
rfemur -79.6693 14.1333 13.2841
rtibia 105.612
rfoot -7.25182 -0.0222778
rtoes 3.92687
lfemur -1.06442 -2.19273 -23.8094
ltibia 19.5307
lfoot -9.84727 1.51379
ltoes -12.0915
2188
root -1.81094 17.9174 0.494551 -4.15299 8.20352 0.885282
lowerback 17.0656 -10.2218 -8.79431
upperback 1.33224 -14.872 4.69546
thorax -4.36661 -7.24256 12.6021
lowerneck -17.2409 -3.62096 -11.4407
upperneck 30.227 -4.69483 8.76445
head 13.5826 -2.27927 4.67507
rclavicle 4.44284e-014 -2.78299e-014
rhumerus -46.3768 -2.49888 -47.7911
rradius 87.1783
rwrist 14.3184
rhand -23.8392 17.6255
rfingers 7.12502
rthumb 2.6327 -12.338
lclavicle 4.44284e-014 -2.78299e-014
lhumerus 1.44763 1.0236 64.4758
lradius 73.3845
lwrist 14.4209
lhand -15.2481 10.5244
lfingers 7.12502
lthumb 10.9255 40.2201
rfemur -81.3795 14.8608 12.9709
rtibia 106.003
rfoot -6.58237 0.218429
rtoes 6.93169
lfemur -0.83431 -2.04476 -23.7893
ltibia 19.2642
lfoot -9.61835 1.62473
ltoes -12.0762
2189
root -1.80799 17.9301 0.461611 -4.2901 7.94489 0.867377
lowerback 17.6438 -10.4302 -8.90532
upperback 1.48531 -15.2022 4.69114
thorax -4.39068 -7.40943 12.7977
lowerneck -17.0301 -3.53278 -11.5069
upperneck 30.0866 -4.60784 8.8891
head 13.4695 -2.23728 4.74564
rclavicle -6.61953e-014 -7.95139e-015
rhumerus -46.7913 -2.52147 -47.9293
rradius 87.0119
rwrist 14.4949
rhand -23.9846 17.8764
rfingers 7.12502
rthumb 2.49228 -12.0888
lclavicle -6.61953e-014 -7.95139e-015
lhumerus 2.9517 0.489955 63.8064
lradius 73.3827
lwrist 14.3548
lhand -15.1278 10.3292
lfingers 7.12502
lthumb 11.0415 40.0188
rfemur -83.0893 15.5368 12.617
rtibia 106.274
rfoot -6.09025 0.28295
rtoes 9.88548
lfemur -0.675619 -1.84778 -23.7802
ltibia 19.0047
lfoot -9.34254 1.66802
ltoes -12.0656
2190
root -1.80509 17.9469 0.425443 -4.41983 7.71242 0.680197
lowerback 18.208 -10.6222 -8.87243
upperback 1.68677 -15.4766 4.72449
thorax -4.39195 -7.55532 12.9474
lowerneck -16.8184 -3.50641 -11.5274
upperneck 29.8331 -4.61631 9.01092
head 13.3205 -2.2295 4.78564
rclavicle -9.78021e-014 2.06736e-014
rhumerus -47.2247 -2.69549 -48.0265
rradius 86.8713
rwrist 14.776
rhand -24.0386 18.279
rfingers 7.12502
rthumb 2.44008 -11.6868
lclavicle -9.78021e-014 2.06736e-014
lhumerus 4.59961 -0.0403913 63.1697
lradius 73.2904
lwrist 14.175
lhand -14.9616 9.88717
lfingers 7.12502
lthumb 11.2018 39.5681
rfemur -84.6857 16.141 12.5026
rtibia 106.441
rfoot -5.64295 0.238779
rtoes 10.8511
lfemur -0.608276 -1.69385 -23.5739
ltibia 18.8153
lfoot -9.12711 1.65515
ltoes -11.6181
2191
root -1.80077 17.9553 0.391071 -4.56497 7.51699 0.505281
lowerback 18.7728 -10.8015 -8.865
upperback 1.92269 -15.7369 4.7626
thorax -4.34838 -7.69992 13.1106
lowerneck -16.7615 -3.50139 -11.5666
upperneck 29.6631 -4.64188 9.15099
head 13.2443 -2.22715 4.83749
rclavicle 1.46902e-013 -4.69132e-014
rhumerus -47.6926 -2.92326 -48.0989
rradius 86.8083
rwrist 14.9983
rhand -23.687 18.6616
rfingers 7.12502
rthumb 2.77967 -11.3
lclavicle 1.46902e-013 -4.69132e-014
lhumerus 6.24822 -0.650747 62.4659
lradius 73.3237
lwrist 14.2534
lhand -14.9503 9.61186
lfingers 7.12502
lthumb 11.2127 39.2922
rfemur -86.1802 16.7015 12.4494
rtibia 106.603
rfoot -5.22179 0.148246
rtoes 9.35514
lfemur -0.5403 -1.54286 -23.388
ltibia 18.7021
lfoot -8.98653 1.62905
ltoes -11.3125
2192
root -1.7938 17.9501 0.365762 -4.69206 7.28809 0.397342
lowerback 19.1448 -10.9811 -8.83419
upperback 2.24633 -15.981 4.7196
thorax -4.14058 -7.85529 13.1095
lowerneck -16.8233 -3.56949 -11.5469
upperneck 29.563 -4.79466 9.3225
head 13.2402 -2.2688 4.87405
rclavicle -1.2921e-015 -2.54444e-014
rhumerus -48.1604 -3.29532 -48.2831
rradius 86.8282
rwrist 15.1194
rhand -23.3946 18.5409
rfingers 7.12502
rthumb 3.06207 -11.4169
lclavicle -1.2921e-015 -2.54444e-014
lhumerus 8.09621 -1.40958 61.5148
lradius 73.3825
lwrist 14.6891
lhand -15.3271 10.1374
lfingers 7.12502
lthumb 10.8492 39.8371
rfemur -87.6674 17.2895 12.2769
rtibia 106.785
rfoot -4.90147 0.0701558
rtoes 8.21438
lfemur -0.44874 -1.34309 -23.2787
ltibia 18.638
lfoot -8.85373 1.6242
ltoes -11.0258
2193
root -1.78645 17.9397 0.344354 -4.82906 7.00139 0.512904
lowerback 19.5646 -11.0868 -9.03996
upperback 2.51084 -16.1854 4.6284
thorax -3.98236 -7.98055 13.1943
lowerneck -16.6612 -3.60638 -11.4902
upperneck 29.4007 -4.89455 9.36879
head 13.1503 -2.30316 4.85842
rclavicle 1.19271e-015 -1.51076e-014
rhumerus -48.6155 -3.57614 -48.4009
rradius 86.8031
rwrist 15.0888
rhand -23.529 18.4586
rfingers 7.12502
rthumb 2.93224 -11.501
lclavicle 1.19271e-015 -1.51076e-014
lhumerus 10.0004 -2.30094 60.5007
lradius 73.2838
lwrist 15.1846
lhand -15.6889 10.5349
lfingers 7.12502
lthumb 10.5002 40.2526
rfemur -89.102 17.8365 11.8642
rtibia 106.961
rfoot -4.58323 0.109885
rtoes 8.38233
lfemur -0.379497 -1.06793 -23.4102
ltibia 18.6786
lfoot -8.75319 1.61464
ltoes -10.9374
2194
root -1.77957 17.9298 0.315789 -4.95258 6.79975 0.772123
lowerback 20.1763 -11.1748 -9.41116
upperback 2.69094 -16.419 4.53315
thorax -3.96091 -8.10196 13.4249
lowerneck -16.5721 -3.54447 -11.4605
upperneck 29.3378 -4.81351 9.3395
head 13.0917 -2.27051 4.85125
rclavicle -7.77248e-014 5.1684e-014
rhumerus -49.1182 -3.82106 -48.438
rradius 86.7392
rwrist 14.9169
rhand -23.7508 18.8217
rfingers 7.12502
rthumb 2.71801 -11.1407
lclavicle -7.77248e-014 5.1684e-014
lhumerus 11.6642 -3.05826 59.5732
lradius 73.2298
lwrist 15.2768
lhand -15.6827 10.6415
lfingers 7.12502
lthumb 10.5062 40.359
rfemur -90.4803 18.1845 11.3387
rtibia 107.109
rfoot -4.25646 0.242184
rtoes 8.60749
lfemur -0.40169 -0.872475 -23.7146
ltibia 18.8142
lfoot -8.71594 1.63569
ltoes -11.2956
